<?xml version="1.0" encoding="utf-8"?>
<!-- Generator: Adobe Illustrator 21.1.0, SVG Export Plug-In . SVG Version: 6.00 Build 0)  -->
<svg version="1.1" id="Warstwa_1" xmlns="http://www.w3.org/2000/svg" xmlns:xlink="http://www.w3.org/1999/xlink" x="0px" y="0px"
	 viewBox="0 0 250 250" style="enable-background:new 0 0 250 250;" xml:space="preserve">
<style type="text/css">
	.st0{fill:#B4392E;}
	.st1{fill:#F7F7F6;}
</style>
<rect y="0" class="st0" width="250" height="250"/>
<g>
	<path class="st1" d="M91.1,114.9H84V99.5H19.5v76.6h24.6v19.8h68.4v-60L91.1,114.9z M89.1,125.6l11.7,11.5H89.1V125.6z M28.4,167
		v-58.4h46.7v6.5H44.1v52.1H28.4V167z M103.6,186.8H53.1v-62.9h30.1v19.2h20.4v43.7H103.6z"/>
</g>
<polygon class="st1" points="180.9,147.6 172.1,156.4 188.7,173 216.7,145 210.4,138.4 188.9,156.2 "/>
<g>
	<path class="st1" d="M212,102.4h-56.4v91.9h81.9v-66.9L212,102.4z M210,114.6l14.1,14H210V114.6z M227.5,184.2h-61.8v-71.8h38.6
		v21.8h23.2L227.5,184.2L227.5,184.2z"/>
</g>
<path class="st1" d="M140.2,81.2l5.2-14.3c0.6-1.5-0.3-3.2-1.8-3.8c-1.5-0.6-3.4,0.2-3.8,1.7l-2.8,7.4
	c-4.8-10.6-15.2-18.3-27.7-18.9c-12.5-0.6-23.5,6.1-29.2,16.3c-0.9,1.4-0.5,3.4,1.1,4.2c1.4,0.9,3.4,0.5,4.3-0.9
	c4.8-8.6,13.2-14.1,23.7-13.7c10.5,0.5,18.6,6.8,22.4,15.7l-7.5-3.2c-1.5-0.6-3.2,0.3-3.8,1.8s0.2,3.4,1.7,3.8l14.5,5.5l0,0
	C137.9,83.5,139.5,82.7,140.2,81.2z"/>
</svg>
